<svg width="45" height="45" viewBox="0 0 45 45" fill="none" xmlns="http://www.w3.org/2000/svg">
<path d="M44.2504 34.6869L34.9391 25.4998C34.499 25.0657 33.9206 24.8342 33.3261 24.8541C32.7316 24.874 32.1675 25.1439 31.7529 25.6067L26.2715 31.7239C24.9521 31.4505 22.2996 30.5532 19.5692 27.5977C16.8388 24.6323 16.0119 21.7464 15.7668 20.3246L21.3994 14.3739C21.8264 13.9243 22.0754 13.3121 22.0938 12.6668C22.1122 12.0214 21.8985 11.3937 21.4979 10.9163L13.0341 0.814537C12.6334 0.335688 12.0764 0.0452303 11.4815 0.00485152C10.8865 -0.0355272 10.3005 0.177354 9.84792 0.598283L4.87732 5.22413C4.48131 5.65543 0.0508547 10.7733 0.0189706 11.3812C-0.0153883 12.0026 -0.670498 26.7228 9.84792 38.142C19.024 48.0971 34.7123 44.2816 37.8779 44.2816C38.3406 44.2816 38.6247 44.2667 38.7003 44.2617C39.2603 44.2277 39.789 43.97 40.1846 43.5384L44.4451 38.142C44.8345 37.6524 45.0321 37.017 44.9957 36.3714C44.9594 35.7259 44.6919 35.1213 44.2504 34.6869Z" fill="#FF2F2F"/>
</svg>
