<svg width="46" height="34" viewBox="0 0 46 34" fill="none" xmlns="http://www.w3.org/2000/svg">
<path d="M42.4444 0.333336H3.55555C2.81884 0.333336 2.1123 0.625994 1.59136 1.14693C1.07043 1.66786 0.777771 2.3744 0.777771 3.11111V30.8889C0.777771 31.6256 1.07043 32.3321 1.59136 32.8531C2.1123 33.374 2.81884 33.6667 3.55555 33.6667H42.4444C43.1811 33.6667 43.8877 33.374 44.4086 32.8531C44.9296 32.3321 45.2222 31.6256 45.2222 30.8889V3.11111C45.2222 2.3744 44.9296 1.66786 44.4086 1.14693C43.8877 0.625994 43.1811 0.333336 42.4444 0.333336ZM40.3055 30.8889H5.8611L15.5833 20.8333L13.5833 18.9028L3.55555 29.2778V5.22223L20.8194 22.4028C21.3399 22.9201 22.0439 23.2105 22.7778 23.2105C23.5116 23.2105 24.2157 22.9201 24.7361 22.4028L42.4444 4.79167V29.0972L32.2222 18.875L30.2639 20.8333L40.3055 30.8889ZM5.37499 3.11111H40.1944L22.7778 20.4306L5.37499 3.11111Z" fill="#FF2F2F"/>
</svg>
