<svg width="39" height="39" viewBox="0 0 39 39" fill="none" xmlns="http://www.w3.org/2000/svg">
<path d="M19.1406 10.1562C17.3637 10.1562 15.6266 10.6832 14.1492 11.6704C12.6717 12.6576 11.5202 14.0608 10.8401 15.7025C10.1601 17.3441 9.98222 19.1506 10.3289 20.8934C10.6755 22.6362 11.5312 24.2371 12.7877 25.4935C14.0442 26.75 15.6451 27.6057 17.3879 27.9524C19.1307 28.299 20.9371 28.1211 22.5788 27.4411C24.2205 26.7611 25.6236 25.6095 26.6109 24.1321C27.5981 22.6546 28.125 20.9176 28.125 19.1406C28.1223 16.7586 27.1749 14.475 25.4906 12.7907C23.8063 11.1064 21.5226 10.1589 19.1406 10.1562ZM19.1406 25.7812C17.8272 25.7812 16.5433 25.3918 15.4513 24.6621C14.3592 23.9324 13.5081 22.8953 13.0055 21.6819C12.5029 20.4685 12.3714 19.1333 12.6276 17.8451C12.8838 16.5569 13.5163 15.3737 14.445 14.445C15.3737 13.5163 16.5569 12.8838 17.8451 12.6276C19.1333 12.3714 20.4685 12.5029 21.6819 13.0055C22.8953 13.5081 23.9324 14.3592 24.6621 15.4513C25.3918 16.5433 25.7812 17.8272 25.7812 19.1406C25.7792 20.9012 25.079 22.5891 23.834 23.834C22.5891 25.079 20.9012 25.7792 19.1406 25.7812ZM27.7344 0H10.5469C7.75065 0.00320496 5.06988 1.11542 3.09265 3.09265C1.11542 5.06988 0.00320496 7.75065 0 10.5469V27.7344C0.00320496 30.5306 1.11542 33.2114 3.09265 35.1886C5.06988 37.1658 7.75065 38.278 10.5469 38.2812H27.7344C30.5306 38.278 33.2114 37.1658 35.1886 35.1886C37.1658 33.2114 38.278 30.5306 38.2812 27.7344V10.5469C38.278 7.75065 37.1658 5.06988 35.1886 3.09265C33.2114 1.11542 30.5306 0.00320496 27.7344 0ZM35.9375 27.7344C35.9351 29.9092 35.07 31.9943 33.5322 33.5322C31.9943 35.07 29.9092 35.9351 27.7344 35.9375H10.5469C8.37202 35.9351 6.28693 35.07 4.74907 33.5322C3.21122 31.9943 2.34618 29.9092 2.34375 27.7344V10.5469C2.34618 8.37202 3.21122 6.28693 4.74907 4.74907C6.28693 3.21122 8.37202 2.34618 10.5469 2.34375H27.7344C29.9092 2.34618 31.9943 3.21122 33.5322 4.74907C35.07 6.28693 35.9351 8.37202 35.9375 10.5469V27.7344ZM31.25 8.98438C31.25 9.37067 31.1355 9.74828 30.9208 10.0695C30.7062 10.3907 30.4012 10.641 30.0443 10.7888C29.6874 10.9367 29.2947 10.9753 28.9158 10.9C28.537 10.8246 28.189 10.6386 27.9158 10.3654C27.6427 10.0923 27.4566 9.74428 27.3813 9.36541C27.3059 8.98654 27.3446 8.59383 27.4924 8.23695C27.6402 7.88006 27.8906 7.57502 28.2118 7.36041C28.533 7.1458 28.9106 7.03125 29.2969 7.03125C29.8147 7.03187 30.3111 7.23784 30.6773 7.60399C31.0434 7.97014 31.2494 8.46656 31.25 8.98438Z" fill="white"/>
</svg>
