<svg width="21" height="21" viewBox="0 0 21 21" fill="none" xmlns="http://www.w3.org/2000/svg">
<path fill-rule="evenodd" clip-rule="evenodd" d="M19.6875 18.375C19.6875 18.375 21 18.375 21 17.0625C21 15.75 19.6875 11.8125 14.4375 11.8125C9.1875 11.8125 7.875 15.75 7.875 17.0625C7.875 18.375 9.1875 18.375 9.1875 18.375H19.6875ZM9.19406 17.136V17.1334V17.136ZM9.21637 17.0625H19.6586C19.6648 17.0618 19.6709 17.0609 19.677 17.0599L19.6875 17.0573C19.6849 16.7108 19.4683 15.7054 18.69 14.7998C17.9655 13.9506 16.6924 13.125 14.4375 13.125C12.1839 13.125 10.9108 13.9519 10.185 14.7998C9.40669 15.7054 9.18881 16.7121 9.1875 17.0573C9.19711 17.0591 9.20673 17.0609 9.21637 17.0625V17.0625ZM19.6809 17.136V17.1334V17.136ZM14.4375 9.1875C15.1337 9.1875 15.8014 8.91094 16.2937 8.41866C16.7859 7.92637 17.0625 7.25869 17.0625 6.5625C17.0625 5.86631 16.7859 5.19863 16.2937 4.70634C15.8014 4.21406 15.1337 3.9375 14.4375 3.9375C13.7413 3.9375 13.0736 4.21406 12.5813 4.70634C12.0891 5.19863 11.8125 5.86631 11.8125 6.5625C11.8125 7.25869 12.0891 7.92637 12.5813 8.41866C13.0736 8.91094 13.7413 9.1875 14.4375 9.1875ZM18.375 6.5625C18.375 7.07958 18.2732 7.5916 18.0753 8.06932C17.8774 8.54704 17.5874 8.9811 17.2217 9.34673C16.8561 9.71236 16.422 10.0024 15.9443 10.2003C15.4666 10.3982 14.9546 10.5 14.4375 10.5C13.9204 10.5 13.4084 10.3982 12.9307 10.2003C12.453 10.0024 12.0189 9.71236 11.6533 9.34673C11.2876 8.9811 10.9976 8.54704 10.7997 8.06932C10.6018 7.5916 10.5 7.07958 10.5 6.5625C10.5 5.51821 10.9148 4.51669 11.6533 3.77827C12.3917 3.03984 13.3932 2.625 14.4375 2.625C15.4818 2.625 16.4833 3.03984 17.2217 3.77827C17.9602 4.51669 18.375 5.51821 18.375 6.5625V6.5625ZM9.1035 12.18C8.57848 12.0147 8.03727 11.906 7.48912 11.8558C7.18112 11.8265 6.87189 11.8121 6.5625 11.8125C1.3125 11.8125 0 15.75 0 17.0625C0 17.9379 0.437063 18.375 1.3125 18.375H6.846C6.65143 17.9653 6.55439 17.516 6.5625 17.0625C6.5625 15.7369 7.05731 14.3824 7.99313 13.251C8.31206 12.8651 8.6835 12.5042 9.1035 12.18ZM6.4575 13.125C4.26825 13.1512 3.02531 13.965 2.31 14.7998C1.52644 15.7106 1.3125 16.7199 1.3125 17.0625H5.25C5.25 15.6909 5.67394 14.3246 6.4575 13.125ZM1.96875 7.21875C1.96875 6.17446 2.38359 5.17294 3.12202 4.43452C3.86044 3.69609 4.86196 3.28125 5.90625 3.28125C6.95054 3.28125 7.95206 3.69609 8.69048 4.43452C9.42891 5.17294 9.84375 6.17446 9.84375 7.21875C9.84375 8.26304 9.42891 9.26456 8.69048 10.003C7.95206 10.7414 6.95054 11.1562 5.90625 11.1562C4.86196 11.1562 3.86044 10.7414 3.12202 10.003C2.38359 9.26456 1.96875 8.26304 1.96875 7.21875V7.21875ZM5.90625 4.59375C5.21006 4.59375 4.54238 4.87031 4.05009 5.36259C3.55781 5.85488 3.28125 6.52256 3.28125 7.21875C3.28125 7.91494 3.55781 8.58262 4.05009 9.07491C4.54238 9.56719 5.21006 9.84375 5.90625 9.84375C6.60244 9.84375 7.27012 9.56719 7.76241 9.07491C8.25469 8.58262 8.53125 7.91494 8.53125 7.21875C8.53125 6.52256 8.25469 5.85488 7.76241 5.36259C7.27012 4.87031 6.60244 4.59375 5.90625 4.59375Z" fill="white" fill-opacity="0.75"/>
</svg>
