<svg width="50" height="40" viewBox="0 0 50 40" fill="none" xmlns="http://www.w3.org/2000/svg">
<path d="M43.0226 25.6325C42.7826 23.965 41.4951 22.665 39.8376 22.2775C33.3951 20.7675 31.7801 17.0575 31.5076 12.9425C30.3651 12.73 28.3326 12.5 24.8826 12.5C21.4326 12.5 19.4001 12.73 18.2576 12.9425C17.9851 17.0575 16.3701 20.7675 9.92758 22.2775C8.27008 22.6675 6.98258 23.965 6.74258 25.6325L5.50008 34.2375C5.06258 37.2675 7.28758 40 10.3826 40H39.3826C42.4751 40 44.7026 37.2675 44.2651 34.2375L43.0226 25.6325ZM24.8826 33.73C21.3951 33.73 18.5676 30.93 18.5676 27.48C18.5676 24.03 21.3951 21.23 24.8826 21.23C28.3701 21.23 31.1976 24.03 31.1976 27.48C31.1976 30.93 28.3676 33.73 24.8826 33.73ZM49.7576 10C49.6976 6.25 40.1526 0.0025 24.8826 0C9.61008 0.0025 0.065079 6.25 0.00757897 10C-0.049921 13.75 0.0600791 18.63 6.34508 17.8175C13.6976 16.865 13.2451 14.2975 13.2451 10.6275C13.2451 8.0675 19.2251 7.45 24.8826 7.45C30.5401 7.45 36.5176 8.0675 36.5201 10.6275C36.5201 14.2975 36.0676 16.865 43.4201 17.8175C49.7026 18.63 49.8151 13.75 49.7576 10Z" fill="#FF2F2F"/>
</svg>
