<svg width="20" height="16" viewBox="0 0 20 16" fill="none" xmlns="http://www.w3.org/2000/svg">
<path d="M18 3.83333L10 8.625L2 3.83333V1.91667L10 6.70833L18 1.91667V3.83333ZM18 0H2C0.89 0 0 0.852917 0 1.91667V13.4167C0 13.925 0.210714 14.4125 0.585786 14.772C0.960859 15.1314 1.46957 15.3333 2 15.3333H18C18.5304 15.3333 19.0391 15.1314 19.4142 14.772C19.7893 14.4125 20 13.925 20 13.4167V1.91667C20 1.40833 19.7893 0.920823 19.4142 0.561379C19.0391 0.201934 18.5304 0 18 0Z" fill="white" fill-opacity="0.6"/>
</svg>
